# xmcd
#
# Track frame offsets:
#	150
#	17840
#	40306
#	65450
#	103994
#	134314
#	148992
#	168003
#	187468
#	220330
#	245547
#	260174
#	306107
#
# Disc length: 4481 seconds
#
# Revision: 0
# Processed by: cddbd v1.5.2PL0 Copyright (c) Steve Scherf et al.
# Submitted via: EasyCDDAExtractor 2010.6.0.0
#
DISCID=cf117f0d
DTITLE=Various Artist - Mixmag - The Greatest Dance Tracks of All Time CD 1
DYEAR=1900
DGENRE=
TTITLE0=Daft Punk - One More Time
TTITLE1=Swedish House Mafia - One
TTITLE2=Avicii - Levels
TTITLE3=Faithless - Insomnia (Monster Mix)
TTITLE4=Benny Benassi and the Biz - Satisfaction (Isak Original)
TTITLE5=Armand Van Helden Feat. Duane Harden - U Don't Know Me
TTITLE6=Robin S - Show Me Love (Stonebridge Club Mix)
TTITLE7=Stardust - Music Sounds Better With You
TTITLE8=David Guetta - Just A Little More Love (Wally Lopez Remix)
TTITLE9=Donna Summer - I Feel Love
TTITLE10=Deadmau5 and Kaskade - I Remember (Extended Version)
TTITLE11=Jaydee - Plastic Dreams
TTITLE12=Frankie Knuckles Feat. Jamie Principle - Your Love
EXTD=
EXTT0=
EXTT1=
EXTT2=
EXTT3=
EXTT4=
EXTT5=
EXTT6=
EXTT7=
EXTT8=
EXTT9=
EXTT10=
EXTT11=
EXTT12=
PLAYORDER=
